<svg width="24" height="25" viewBox="0 0 24 25" fill="none" xmlns="http://www.w3.org/2000/svg">
<path d="M19 21.5H8V7.5H19M19 5.5H8C7.46957 5.5 6.96086 5.71071 6.58579 6.08579C6.21071 6.46086 6 6.96957 6 7.5V21.5C6 22.0304 6.21071 22.5391 6.58579 22.9142C6.96086 23.2893 7.46957 23.5 8 23.5H19C19.5304 23.5 20.0391 23.2893 20.4142 22.9142C20.7893 22.5391 21 22.0304 21 21.5V7.5C21 6.96957 20.7893 6.46086 20.4142 6.08579C20.0391 5.71071 19.5304 5.5 19 5.5ZM16 1.5H4C3.46957 1.5 2.96086 1.71071 2.58579 2.08579C2.21071 2.46086 2 2.96957 2 3.5V17.5H4V3.5H16V1.5Z" fill="#898989"/>
</svg>
