<svg width="24" height="25" viewBox="0 0 24 25" fill="none" xmlns="http://www.w3.org/2000/svg">
<path fill-rule="evenodd" clip-rule="evenodd" d="M9.87045 7.04481C10.2356 7.33153 10.4456 7.75909 10.4456 8.21785C10.4456 11.9158 10.5704 12.9109 11.0806 13.2895C11.4154 13.5366 11.8742 13.5341 13.4199 13.4911C14.1385 13.47 15.0585 13.443 16.2636 13.443C16.7443 13.443 17.1971 13.6488 17.5041 14.0072C17.7891 14.3403 17.914 14.7754 17.8482 15.2038C17.2848 18.8512 14.1815 21.5 10.4692 21.5C6.35047 21.5 3 18.1495 3 14.0316C3 10.7663 5.46921 7.50104 8.50429 6.75387C8.97823 6.63833 9.48759 6.74628 9.87045 7.04481ZM8.888 7.97245C8.86101 7.97245 8.83402 7.97582 8.80704 7.98257C6.30241 8.59903 4.26497 11.3128 4.26497 14.0316C4.26497 17.4521 7.04789 20.235 10.4692 20.235C13.5532 20.235 16.1303 18.0382 16.5975 15.0107C16.6009 14.9854 16.6127 14.9121 16.5436 14.8303C16.4778 14.7535 16.3732 14.708 16.2636 14.708C15.0737 14.708 14.1654 14.735 13.4562 14.7552C11.7392 14.8066 11.0292 14.826 10.3275 14.3057C9.32425 13.5625 9.19234 12.3129 9.18145 8.80652L9.18063 8.21785C9.18063 8.14702 9.15027 8.08798 9.08955 8.04076C9.03305 7.99606 8.96136 7.97245 8.888 7.97245ZM18.2221 5.80539C19.7046 7.28709 20.6458 9.2343 20.6188 10.7666C20.6087 11.3645 20.1744 11.8637 19.5874 11.9523C18.4422 12.1252 17.1013 12.1775 15.9148 12.1775C14.8101 12.1775 13.8377 12.1328 13.2786 12.1007C12.5753 12.0594 12.0153 11.4986 11.9749 10.7953C11.9091 9.68041 11.7666 6.84773 11.8678 4.6568C11.8956 4.0201 12.41 3.51328 13.0391 3.50231C14.8413 3.45003 16.7008 4.28659 18.2221 5.80539ZM13.1471 4.76644H13.1285C13.0357 6.89074 13.1732 9.63487 13.2373 10.7219C13.2407 10.7868 13.2879 10.8341 13.352 10.8374C14.2189 10.8872 17.2059 11.0255 19.3538 10.7092C19.3589 9.52524 18.5485 7.91957 17.3282 6.70015C16.0767 5.45036 14.5959 4.76644 13.1471 4.76644Z" fill="black"/>
</svg>
