<svg width="130" height="40" viewBox="0 0 130 40" fill="none" xmlns="http://www.w3.org/2000/svg">
<g clip-path="url(#clip0_102_411)">
<path d="M31.9999 20.8C32.0541 21.076 32.0004 21.3623 31.8499 21.6L23.9999 32C23.5342 32.621 22.9303 33.125 22.236 33.4721C21.5417 33.8193 20.7762 34 19.9999 34H11.6599C10.8646 34.0007 10.102 34.3172 9.53994 34.88L8.70994 35.71C8.61698 35.8037 8.50638 35.8781 8.38452 35.9289C8.26266 35.9797 8.13195 36.0058 7.99994 36.0058C7.86793 36.0058 7.73722 35.9797 7.61536 35.9289C7.49351 35.8781 7.3829 35.8037 7.28994 35.71C7.19621 35.617 7.12182 35.5064 7.07105 35.3846C7.02028 35.2627 6.99414 35.132 6.99414 35C6.99414 34.868 7.02028 34.7373 7.07105 34.6154C7.12182 34.4936 7.19621 34.383 7.28994 34.29L8.11994 33.46C8.58513 32.996 9.13722 32.6282 9.74464 32.3777C10.3521 32.1272 11.0029 31.9988 11.6599 32H19.9999C20.4657 32 20.925 31.8916 21.3416 31.6833C21.7581 31.475 22.1205 31.1726 22.3999 30.8L29.4699 21.38C28.9337 21.2415 28.3696 21.2541 27.8401 21.4165C27.3106 21.5789 26.8363 21.8847 26.4699 22.3L21.8799 27.53C21.7872 27.6785 21.6572 27.8001 21.5027 27.8826C21.3483 27.9651 21.1749 28.0056 20.9999 28H12.9999C12.7347 28 12.4804 27.8946 12.2928 27.7071C12.1053 27.5196 11.9999 27.2652 11.9999 27C11.9999 26.7348 12.1053 26.4804 12.2928 26.2929C12.4804 26.1054 12.7347 26 12.9999 26H19.9999C19.9999 25.4696 19.7892 24.9609 19.4142 24.5858C19.0391 24.2107 18.5304 24 17.9999 24H17.0699C16.1731 24.0023 15.2959 23.7377 14.5499 23.24C13.1346 22.2936 11.4345 21.8679 9.74012 22.0357C8.04576 22.2035 6.46221 22.9544 5.25994 24.16L1.70994 27.71C1.52164 27.8983 1.26624 28.0041 0.999941 28.0041C0.73364 28.0041 0.478245 27.8983 0.289941 27.71C0.101638 27.5217 -0.00415039 27.2663 -0.00415039 27C-0.00415039 26.7337 0.101638 26.4783 0.289941 26.29L3.83994 22.74C5.37249 21.2109 7.38678 20.259 9.54116 20.0458C11.6955 19.8325 13.8574 20.371 15.6599 21.57C16.0771 21.8496 16.5678 21.9992 17.0699 22H17.9999C18.8186 22.0044 19.6161 22.26 20.285 22.7321C20.9538 23.2042 21.4616 23.8701 21.7399 24.64L24.9399 21C25.7382 20.0884 26.8403 19.4976 28.0414 19.3376C29.2425 19.1775 30.4609 19.4591 31.4699 20.13C31.7254 20.2778 31.9149 20.5174 31.9999 20.8Z" fill="#04009A"/>
<path d="M16 5H20V8C20 8.26522 19.8946 8.51957 19.7071 8.70711C19.5196 8.89464 19.2652 9 19 9H17C16.7348 9 16.4804 8.89464 16.2929 8.70711C16.1054 8.51957 16 8.26522 16 8V5Z" fill="#77ACF1"/>
<path d="M22 18H14C13.2044 18 12.4413 17.6839 11.8787 17.1213C11.3161 16.5587 11 15.7956 11 15V7C11 6.20435 11.3161 5.44129 11.8787 4.87868C12.4413 4.31607 13.2044 4 14 4H22C22.7956 4 23.5587 4.31607 24.1213 4.87868C24.6839 5.44129 25 6.20435 25 7V15C25 15.7956 24.6839 16.5587 24.1213 17.1213C23.5587 17.6839 22.7956 18 22 18ZM14 6C13.7348 6 13.4804 6.10536 13.2929 6.29289C13.1054 6.48043 13 6.73478 13 7V15C13 15.2652 13.1054 15.5196 13.2929 15.7071C13.4804 15.8946 13.7348 16 14 16H22C22.2652 16 22.5196 15.8946 22.7071 15.7071C22.8946 15.5196 23 15.2652 23 15V7C23 6.73478 22.8946 6.48043 22.7071 6.29289C22.5196 6.10536 22.2652 6 22 6H14Z" fill="#04009A"/>
</g>
<path d="M46.7333 17.0633C45.3526 16.7497 43.4622 16.5198 43.4622 14.8685C43.4622 13.698 44.4818 13.071 45.7137 13.071C47.2006 13.071 47.9652 13.9279 48.1351 14.7013L50.9389 14.0325C50.3017 11.7959 48.3475 10.5836 45.8624 10.5836C42.7613 10.5836 40.616 12.2976 40.616 15.0567C40.616 17.0842 41.6143 18.5682 44.6092 19.2998C46.9669 19.8641 48.6449 19.9686 48.6449 21.4318C48.6449 22.6859 47.4554 23.2503 45.9686 23.2503C43.887 23.2503 42.9949 22.1634 42.7825 21.3273L40 22.1843C40.7222 24.6089 43.2073 25.7376 45.9898 25.7376C49.8769 25.7376 51.5336 23.5011 51.5336 21.2228C51.5336 18.8608 50.2592 17.8575 46.7333 17.0633Z" fill="#04009A"/>
<path d="M58.517 14.6177C56.9452 14.6177 55.9681 15.3075 55.3734 16.1645V10.8344H52.697V25.4659H55.3734V19.5715C55.3734 18.3592 56.0743 17.1887 57.6673 17.1887C59.1967 17.1887 59.7702 18.2129 59.7702 19.5715V25.4659H62.4677V19.0281C62.4677 16.7915 61.2358 14.6177 58.517 14.6177Z" fill="#04009A"/>
<path d="M64.381 25.4659H67.0786V14.8685H64.381V25.4659ZM65.7192 13.3218C66.5263 13.3218 67.1635 12.6947 67.1635 11.9004C67.1635 11.1271 66.5263 10.5 65.7192 10.5C64.9333 10.5 64.2961 11.1271 64.2961 11.9004C64.2961 12.6947 64.9333 13.3218 65.7192 13.3218Z" fill="#04009A"/>
<path d="M75.109 14.6177C73.4522 14.6177 72.369 15.2448 71.6893 16.1227V14.8685H68.9917V29.5H71.6893V24.2327C72.369 25.0897 73.4522 25.7376 75.109 25.7376C78.465 25.7376 80.3767 22.9576 80.3767 20.1777C80.3767 17.3977 78.465 14.6177 75.109 14.6177ZM74.7054 23.1876C72.8363 23.1876 71.7955 21.808 71.7955 20.1777C71.7955 18.5473 72.8363 17.1678 74.7054 17.1678C76.5534 17.1678 77.6154 18.5473 77.6154 20.1777C77.6154 21.808 76.5534 23.1876 74.7054 23.1876Z" fill="#04009A"/>
<path d="M93.4179 14.6177C91.8886 14.6177 90.8265 15.3493 90.1681 16.2899C89.6158 15.2866 88.66 14.6177 87.1944 14.6177C85.7713 14.6177 84.9004 15.2239 84.3481 15.9973V14.8685H81.6506V25.4659H84.3481V19.3834C84.3481 18.1711 85.0066 17.1887 86.2598 17.1887C87.513 17.1887 88.0653 18.0666 88.0653 19.3834V25.4659H90.7628V19.3834C90.7628 18.1711 91.4213 17.1887 92.6745 17.1887C93.9276 17.1887 94.4799 18.0666 94.4799 19.3834V25.4659H97.1775V18.8399C97.1775 16.6034 95.903 14.6177 93.4179 14.6177Z" fill="#04009A"/>
<path d="M103.944 14.6177C100.971 14.6177 98.4431 16.8542 98.4431 20.1777C98.4431 23.3966 100.801 25.7376 104.369 25.7376C106.408 25.7376 108.065 24.7761 108.936 23.5847L106.769 22.3306C106.451 22.7277 105.601 23.3757 104.369 23.3757C102.882 23.3757 101.693 22.6232 101.311 21.2019H109.297C109.786 17.0215 107.194 14.6177 103.944 14.6177ZM101.311 19.1535C101.629 17.7948 102.67 16.9796 103.987 16.9796C105.431 16.9796 106.387 17.7739 106.663 19.1535H101.311Z" fill="#04009A"/>
<path d="M116.46 14.6177C114.888 14.6177 113.911 15.3075 113.316 16.1645V14.8685H110.64V25.4659H113.316V19.5715C113.316 18.3592 114.017 17.1887 115.61 17.1887C117.139 17.1887 117.713 18.2129 117.713 19.5715V25.4659H120.41V19.0281C120.41 16.7915 119.179 14.6177 116.46 14.6177Z" fill="#04009A"/>
<path d="M128 17.2932V14.8685H125.706V12.6529H123.008V14.8685H121.479V17.2932H123.008V21.599C123.008 23.7937 124.113 25.6122 126.874 25.6122C127.427 25.6122 127.724 25.5495 128 25.4659V23.0413C127.809 23.0622 127.554 23.0831 127.363 23.0831C125.876 23.0831 125.706 22.3724 125.706 21.1601V17.2932H128Z" fill="#04009A"/>
<defs>
<clipPath id="clip0_102_411">
<rect width="32" height="32" fill="white" transform="translate(0 4)"/>
</clipPath>
</defs>
</svg>
